<?xml version="1.0" encoding="UTF-8" standalone="no"?>
<!-- Created with Inkscape (http://www.inkscape.org/) -->

<svg
   xmlns:dc="http://purl.org/dc/elements/1.1/"
   xmlns:cc="http://creativecommons.org/ns#"
   xmlns:rdf="http://www.w3.org/1999/02/22-rdf-syntax-ns#"
   xmlns:svg="http://www.w3.org/2000/svg"
   xmlns="http://www.w3.org/2000/svg"
   xmlns:sodipodi="http://sodipodi.sourceforge.net/DTD/sodipodi-0.dtd"
   xmlns:inkscape="http://www.inkscape.org/namespaces/inkscape"
   width="210mm"
   height="297mm"
   viewBox="0 0 210 297"
   version="1.1"
   id="svg8"
   sodipodi:docname="snakePlant.svg"
   inkscape:version="0.92.3 (2405546, 2018-03-11)">
  <defs
     id="defs2" />
  <sodipodi:namedview
     id="base"
     pagecolor="#ffffff"
     bordercolor="#666666"
     borderopacity="1.0"
     inkscape:pageopacity="0.0"
     inkscape:pageshadow="2"
     inkscape:zoom="0.49497475"
     inkscape:cx="387.55455"
     inkscape:cy="578.59273"
     inkscape:document-units="mm"
     inkscape:current-layer="layer1"
     showgrid="false"
     inkscape:window-width="1366"
     inkscape:window-height="705"
     inkscape:window-x="-8"
     inkscape:window-y="-8"
     inkscape:window-maximized="1"
     inkscape:snap-others="false"
     inkscape:snap-global="false" />
  <metadata
     id="metadata5">
    <rdf:RDF>
      <cc:Work
         rdf:about="">
        <dc:format>image/svg+xml</dc:format>
        <dc:type
           rdf:resource="http://purl.org/dc/dcmitype/StillImage" />
        <dc:title></dc:title>
      </cc:Work>
    </rdf:RDF>
  </metadata>
  <g
     inkscape:label="Layer 1"
     inkscape:groupmode="layer"
     id="layer1">
    <path
       style="fill:#338000;stroke:#000000;stroke-width:0.26458332px;stroke-linecap:butt;stroke-linejoin:miter;stroke-opacity:1"
       d="m 85.961206,235.03471 c 0,0 0.267922,-3.46978 -0.267268,-5.07812 -8.293087,-24.92221 -23.786287,-48.5089 -43.832203,-65.48103 -4.625517,-3.91625 -10.510016,-7.46291 -16.57071,-7.48355 -3.210126,-0.0109 -5.670218,3.20645 -8.803682,3.9039 -1.657901,0.36902 -3.474743,-0.40646 -5.094333,0.10514 -0.644986,0.20374 -1.257546,0.60668 -1.6846808,1.13115 -0.9912584,1.21715 -2.951571,3.31635 -1.7791741,4.36016 1.2345853,1.09918 2.9365079,-1.5251 4.3439449,-2.392 0.616765,-0.37989 1.284529,-0.71211 1.792605,-1.22842 0.953779,-0.96924 1.00525,-2.85808 2.251644,-3.40179 2.534763,-1.10572 5.482602,0.76626 8.185775,1.34979 1.345927,0.29054 2.786387,0.40039 3.990049,1.06907 2.289712,1.27202 3.865409,3.53728 5.736798,5.36996 1.087992,1.06548 2.034044,2.27915 3.19102,3.2693 2.826596,2.41902 8.587556,5.77474 9.09551,6.46866 13.63326,18.6244 8.981582,8.28316 15.577133,17.04271 7.920527,10.51925 10.049785,24.36251 15.849486,36.18422 0.491669,1.00218 1.840661,1.84913 1.603618,2.93997 -0.09459,0.43529 -0.705441,0.54452 -1.069078,0.8018 -0.262224,0.18553 -0.884943,0.22427 -0.801809,0.53454 0.716258,2.67323 8.285355,0.53454 8.285355,0.53454 z"
       id="path839"
       inkscape:connector-curvature="0"
       sodipodi:nodetypes="caaaaaaaaaaaaaassaaaac" />
    <path
       style="fill:#008000;stroke:#000000;stroke-width:0.15940849px;stroke-linecap:butt;stroke-linejoin:miter;stroke-opacity:1"
       d="m 111.84763,238.74727 3.25355,-7.84095 c 0,0 7.92118,-12.77783 8.28122,-13.35863 0.36006,-0.58082 6.84709,-6.29212 7.6272,-7.55054 0.78012,-1.25843 3.69273,-6.38892 3.69273,-6.38892 l 2.28034,-3.67847 6.08439,-8.51855 18.15564,-12.00342 10.89893,-1.16162 11.63815,-0.1936 7.61148,1.54883 1.75067,1.06482 -7.26013,-0.38721 -7.34799,-0.67761 -10.30319,1.06482 c 0,0 -5.60165,1.25842 -6.82531,1.93603 -1.22365,0.67761 -5.52689,4.16248 -6.0948,4.64649 -0.56789,0.484 -4.75981,5.5177 -4.75981,5.5177 l -4.0206,6.48571 -6.06527,10.64819 -5.14599,11.32581 -9.99801,17.42431"
       id="path843-1"
       inkscape:connector-curvature="0" />
    <path
       style="fill:#44aa00;stroke:#000000;stroke-width:0.26458332px;stroke-linecap:butt;stroke-linejoin:miter;stroke-opacity:1"
       d="m 123.58543,246.3551 7.6255,-21.64883 c 0,0 9.81344,-35.27958 10.25949,-36.88319 0.44607,-1.60362 1.8924,-17.37251 2.85888,-20.84702 0.96648,-3.4745 0.45697,-4.90387 2.1577,-11.54827 l 2.94923,-7.85957 c 0.96855,-4.31213 0.75668,-2.74865 1.64005,-6.77249 l 1.00121,-56.953927 2.01967,5.108242 c -0.66878,4.230761 0.37422,8.718689 0.94141,13.191185 l 0.4297,8.79859 c 0,0 -0.0952,5.67149 0.16259,8.08572 -0.0729,3.07568 -1.13643,6.56002 -1.24085,7.89637 -0.10444,1.33635 -0.91478,7.69846 -0.91478,7.69846 l -0.57922,6.87698 -17.84671,25.21145 -10.56916,31.27052 -14.18377,48.10851"
       id="path843-6-8"
       inkscape:connector-curvature="0"
       sodipodi:nodetypes="cccccccccccccccccc" />
    <path
       style="fill:#668000;stroke:#000000;stroke-width:0.19776678px;stroke-linecap:butt;stroke-linejoin:miter;stroke-opacity:1"
       d="m 123.89366,235.19406 10.61459,-18.07659 c 0,0 2.08471,-3.71946 3.64901,-4.8353 1.56428,-1.11584 3.94497,-2.82679 5.63465,-3.49629 1.68968,-0.66951 8.09997,-2.67801 9.17296,-2.67801 1.07301,0 4.76872,-0.37195 5.23671,-0.29756 0.46798,0.0744 1.84279,1.78534 1.84279,1.78534 l -1.73781,-0.29756 -2.14307,-0.14878 -3.49893,0.59512 c 0,0 -2.43172,0.89267 -2.97405,1.19023 -0.54232,0.29755 -5.10399,3.79385 -5.44659,4.16579 -0.34297,0.37195 -4.02807,3.64508 -4.23653,4.01702 -0.20846,0.37195 -1.27415,3.42191 -1.61674,3.79385 -0.34297,0.37195 -2.4215,3.79386 -2.56145,4.09141 -0.14005,0.29756 -1.73919,3.19873 -1.73919,3.19873 l -2.15325,3.79386 -1.19117,2.60362 -0.61674,0.6695 z"
       id="path2442-8"
       inkscape:connector-curvature="0" />
    <path
       style="fill:#008000;stroke:#000000;stroke-width:0.26458332px;stroke-linecap:butt;stroke-linejoin:miter;stroke-opacity:1"
       d="m 117.36493,244.62299 -3.25953,-21.64883 c 0,0 -2.69852,-35.27958 -2.82117,-36.88319 -0.12266,-1.60362 1.61115,-17.37252 1.34539,-20.84703 -0.26577,-3.4745 -1.61653,-17.63978 -1.61653,-17.63978 l -0.77685,-10.15625 -0.9972,-23.51971 8.15581,-33.141424 2.4459,7.376099 c -0.0312,3.002339 1.80104,4.324716 -0.7185,6.860079 l -1.55383,4.168388 c 0,0 0.27411,0.167211 -0.38459,2.038098 -0.65871,1.87089 -0.26552,6.76789 -0.43057,8.10423 -0.16506,1.33635 1.05734,8.3363 1.05734,8.3363 l 1.3697,17.90706 2.7833,29.39965 4.26276,31.27053 4.48161,48.10851"
       id="path843-6"
       inkscape:connector-curvature="0"
       sodipodi:nodetypes="cccccccccccccccccc" />
    <path
       style="fill:#668000;stroke:#000000;stroke-width:0.2845892px;stroke-linecap:butt;stroke-linejoin:miter;stroke-opacity:1"
       d="m 91.176267,234.60716 -6.003719,-37.6313 c 0,0 -1.334158,-7.74307 -0.800496,-10.06599 0.533666,-2.32291 1.334159,-5.88472 2.401487,-7.27847 1.067328,-1.39376 5.603473,-5.57501 6.670801,-5.57501 1.067328,0 4.402725,-0.77431 4.936391,-0.61944 0.533662,0.15485 3.468819,3.71666 3.468819,3.71666 l -2.001243,-0.61944 -2.268073,-0.30973 -2.935152,1.2389 c 0,0 -1.600991,1.85833 -1.867821,2.47778 -0.266835,0.61945 -1.600994,7.89792 -1.600994,8.67223 0,0.77431 -0.667079,7.58821 -0.533663,8.36251 0.133416,0.7743 1.867822,7.12362 1.867822,7.89792 0,0.77432 1.067328,7.89794 1.200745,8.51738 0.133418,0.61944 1.200745,6.65903 1.200745,6.65903 l 1.33416,7.89793 1.200744,5.42015 v 1.39374 z"
       id="path2442"
       inkscape:connector-curvature="0" />
    <path
       style="fill:#338000;stroke:#000000;stroke-width:0.5;stroke-linecap:butt;stroke-linejoin:miter;stroke-miterlimit:4;stroke-dasharray:none;stroke-opacity:1"
       d="M 93.177484,235.03471 91.573866,213.38588 94.7811,178.64085 c 0.1474,-1.59684 -0.267269,-19.51068 -0.267269,-22.98519 0,-3.4745 -0.267269,-17.63978 -0.267269,-17.63978 v -10.15625 l 0.801809,-23.51971 10.690779,-33.141426 10.15625,-3.207234 11.49259,-0.534538 8.55262,4.276313 2.40542,2.939965 -7.48354,-1.069078 -7.75082,-1.870887 -9.6217,2.939965 c 0,0 -4.81085,3.474503 -5.61266,5.34539 -0.80181,1.870887 -2.93997,11.49259 -3.20724,12.828937 -0.26727,1.336347 -1.33634,15.234363 -1.33634,15.234363 v 17.90706 l 0.53453,29.39965 1.87089,31.27053 0.80181,48.10851"
       id="path843"
       inkscape:connector-curvature="0"
       sodipodi:nodetypes="ccsscccccccccccssccccc" />
    <path
       style="fill:#008000;stroke:#000000;stroke-width:0.23255497px;stroke-linecap:butt;stroke-linejoin:miter;stroke-opacity:1"
       d="m 85.165752,235.79808 -6.133771,-16.21895 c 0,0 -7.403014,-26.7007 -7.739504,-27.91436 -0.3365,-1.21367 -0.728544,-13.45162 -1.457635,-16.08123 -0.72909,-2.62961 -3.966671,-13.32275 -3.966671,-13.32275 l -2.131171,-7.68657 -4.139822,-17.88324 3.652448,-26.18627 0.54155,2.71549 c 0.571659,3.90282 0.161208,4.59127 0.673772,8.66115 l 0.08582,6.02082 c 0,0 0.294344,1.23549 -0.108565,2.73419 -0.40293,1.49872 0.242208,1.99577 0.257459,3.03476 0.01525,1.03899 1.29706,7.00083 1.29706,7.00083 l 6.36345,11.54811 6.699504,22.1954 8.417941,23.47335 10.890514,36.32726"
       id="path843-6-0"
       inkscape:connector-curvature="0"
       sodipodi:nodetypes="cccccccccccccccccc" />
    <path
       style="fill:#008000;stroke:#000000;stroke-width:0.29559001px;stroke-linecap:butt;stroke-linejoin:miter;stroke-opacity:1"
       d="m 121.05862,240.70713 -3.99073,-27.04161 c 0,0 -9.11466,-44.06781 -9.52897,-46.07088 -0.41431,-2.00309 -7.42591,-21.70006 -8.323573,-26.04008 -0.897649,-4.34001 -4.290265,-22.0339 -4.290265,-22.0339 l -2.623923,-12.68619 -6.877617,-29.378534 -13.17967,-33.975941 -6.064915,-7.421103 0.760431,9.113279 c 2.056355,10.86656 2.285957,11.83273 4.957962,16.956251 1.284534,2.336934 2.263822,9.255598 2.876128,10.924823 0.612317,1.669239 3.605243,13.887397 3.605243,13.887397 l 4.359114,17.556908 7.061435,36.72317 6.209489,39.0601 11.627911,60.09247"
       id="path843-6-7"
       inkscape:connector-curvature="0"
       sodipodi:nodetypes="ccccccccccccccccc" />
    <path
       style="fill:#c87137;stroke:#000000;stroke-width:0.22016834px;stroke-linecap:butt;stroke-linejoin:miter;stroke-opacity:1"
       d="m 72.425963,249.13709 10.07337,34.02845 47.009057,-0.22097 10.29723,-34.2494 z"
       id="path2459"
       inkscape:connector-curvature="0" />
    <rect
       style="opacity:1;fill:#d38d5f;fill-opacity:1;stroke:#aa8800;stroke-width:0.20794269;stroke-miterlimit:4;stroke-dasharray:none;stroke-opacity:1"
       id="rect821"
       width="79.708397"
       height="22.113018"
       x="65.002556"
       y="231.27075" />
  </g>
</svg>
